<svg xmlns="http://www.w3.org/2000/svg" width="200" height="120" viewBox="90 -50 200 120"><path fill="#0069B4" d="M90 16.6l33.2-58.4H91.9V-50h46.4L105.2 8.4h33v8.2zM162.9-41.8v18.5h26.4v7.7h-26.4v24h33.5v8.2h-43.6V-50H197v8.2zM267 17.5h-3.2l-17.6-45.9-16.4 45.9h-3.2L203.3-50h10.5l14.8 46.5L244.9-50h3.5l16 46.4L279.5-50H290z"/><path d="M90.8 46.6v-.4l4.9-9.5h-4.8v-1.3h6.9v.3l-4.9 9.5H98v1.4zM107.6 42.6h-5.9c0 1 .3 1.7.8 2.2s1.1.7 1.8.7c.8 0 1.5-.2 2.1-.7l.6 1.1c-.2.2-.6.4-1 .6-.6.2-1.2.3-2 .3-1 0-1.9-.4-2.6-1.1-.8-.8-1.2-1.8-1.2-3.1 0-1.4.4-2.4 1.2-3.3.7-.7 1.6-1.1 2.6-1.1 1.2 0 2.1.3 2.8 1 .6.6 1 1.5 1 2.5 0 .4-.1.7-.2.9zm-3.5-3.1c-.7 0-1.2.2-1.6.6-.4.4-.7.9-.7 1.5h4.6c0-.6-.2-1.1-.6-1.5s-1-.6-1.7-.6zM115.3 46.6v-4.8c0-.9-.1-1.5-.4-1.8-.3-.4-.7-.5-1.3-.5-.3 0-.7.1-1 .3-.4.2-.6.4-.8.7v6.1h-1.5v-8.2h1l.5 1.1c.5-.8 1.3-1.2 2.4-1.2 1.8 0 2.7 1.1 2.7 3.3v5.1l-1.6-.1zM120.3 39.5h-1v-1.2h1v-1.7l1.5-.6v2.3h2.2v1.2h-2.3v4.1c0 .7.1 1.2.3 1.5s.6.4 1.1.4c.4 0 .8-.1 1.2-.3l.2 1.3c-.6.2-1.3.2-2 .2s-1.2-.2-1.7-.7c-.4-.5-.7-1.1-.7-1.8v-4.7h.2zM131.4 39.8c-.3-.2-.6-.3-1-.3-.5 0-1 .2-1.4.7s-.6 1.1-.6 1.7v4.7h-1.5v-8.2h1.5v1.3c.5-1 1.3-1.5 2.4-1.5.3 0 .6 0 1.1.1l-.5 1.5zM135.4 38.4v5.2c0 1.3.6 1.9 1.7 1.9.5 0 .9-.1 1.3-.4.4-.3.7-.6.8-1v-5.8h1.5v8.2h-1.5v-1.1c-.2.3-.5.6-1 .9s-1 .4-1.4.4c-.9 0-1.6-.3-2.1-.8s-.7-1.3-.7-2.2v-5.4l1.4.1zM153.1 46.6v-5.2c0-1.3-.6-1.9-1.7-1.9-.4 0-.7.1-1 .3-.3.2-.5.5-.6.7v6.1h-1.5v-5.8c0-.4-.2-.7-.5-1-.3-.2-.7-.4-1.2-.4-.3 0-.6.1-.9.3-.3.2-.6.5-.7.7v6.1h-1.5v-8.2h1l.5 1c.6-.7 1.3-1.1 2.1-1.1 1.2 0 2 .4 2.5 1.1.2-.3.5-.6.9-.8.4-.2.9-.3 1.4-.3.8 0 1.5.3 2 .8s.7 1.2.7 2.1v5.5h-1.5zM167.7 36.3c-.3-.1-.6-.2-.8-.2-.4 0-.8.2-1.1.5-.3.3-.4.8-.4 1.3v.4h1.6v1.2h-1.7v7h-1.5v-7h-1.2v-1.2h1.2c0-1 .3-1.9.8-2.5s1.2-.9 2.1-.9c.4 0 .9.1 1.4.2l-.4 1.2zM171.4 38.4v5.2c0 1.3.6 1.9 1.7 1.9.5 0 .9-.1 1.3-.4.4-.3.7-.6.8-1v-5.8h1.5v8.2h-1.5v-1.1c-.2.3-.5.6-1 .9s-1 .4-1.4.4c-.9 0-1.6-.3-2.1-.8s-.7-1.3-.7-2.2v-5.4l1.4.1zm-.2-3.4c.2 0 .4.1.6.3.2.2.3.4.3.6s-.1.4-.3.6c-.2.2-.4.3-.6.3s-.4-.1-.6-.3c-.2-.2-.3-.4-.3-.6s.1-.4.3-.6c.2-.2.4-.3.6-.3zm3.6 0c.2 0 .4.1.6.3.2.2.3.4.3.6s-.1.4-.3.6c-.2.2-.4.3-.6.3s-.4-.1-.6-.3c-.2-.2-.2-.4-.2-.6s.1-.4.2-.6c.2-.2.4-.3.6-.3zM184 39.8c-.3-.2-.6-.3-1-.3-.5 0-1 .2-1.4.7-.4.5-.6 1.1-.6 1.7v4.7h-1.5v-8.2h1.5v1.3c.5-1 1.3-1.5 2.4-1.5.3 0 .6 0 1.1.1l-.5 1.5zM193.9 36.7v3.2h3.8v1.3h-3.8v4h5.1v1.4h-6.6V35.4h6.7v1.3zM203 38.4v5.2c0 1.3.6 1.9 1.7 1.9.5 0 .9-.1 1.3-.4s.7-.6.8-1v-5.8h1.5v8.2h-1.5v-1.1c-.2.3-.5.6-1 .9s-1 .4-1.4.4c-.9 0-1.6-.3-2.1-.8s-.7-1.3-.7-2.2v-5.4l1.4.1zM215.7 39.8c-.3-.2-.6-.3-1-.3-.5 0-1 .2-1.4.7-.4.5-.6 1.1-.6 1.7v4.7h-1.5v-8.2h1.5v1.3c.5-1 1.3-1.5 2.4-1.5.3 0 .6 0 1.1.1l-.5 1.5zM217.7 42.5c0-1.3.3-2.3 1-3.1s1.6-1.2 2.7-1.2c1.2 0 2.1.4 2.7 1.1.7.7 1 1.8 1 3.1s-.3 2.4-1 3.1c-.7.8-1.6 1.1-2.7 1.1-1.2 0-2.1-.4-2.7-1.2-.7-.6-1-1.6-1-2.9zm1.5 0c0 2.1.7 3.1 2.2 3.1.7 0 1.2-.3 1.6-.8.4-.6.6-1.3.6-2.3 0-2-.7-3.1-2.2-3.1-.7 0-1.2.3-1.6.8-.4.6-.6 1.3-.6 2.3zM229.1 46.2v3.7h-1.5V38.4h1.5v.7c.6-.6 1.2-.8 2-.8 1.2 0 2.1.4 2.7 1.1.7.7 1 1.8 1 3.2 0 1.2-.3 2.3-1 3.1s-1.6 1.2-2.8 1.2c-.3 0-.7-.1-1.1-.2-.4-.2-.7-.4-.8-.5zm0-6V45c.1.1.3.3.6.4s.6.2.9.2c1.8 0 2.7-1 2.7-3.1 0-1-.2-1.8-.6-2.3-.4-.5-1.1-.7-2.1-.7-.2 0-.5.1-.8.2-.3.1-.5.3-.7.5zM242 45.7c-.6.7-1.5 1.1-2.7 1.1-.6 0-1.2-.2-1.7-.7s-.7-1.1-.7-1.8c0-.8.4-1.5 1.1-2.1s1.7-.9 2.8-.9c.3 0 .7.1 1 .2 0-1.3-.6-2-1.8-2-.9 0-1.6.2-2.1.7l-.6-1.2c.3-.2.7-.4 1.1-.6.5-.2 1-.2 1.4-.2 1.2 0 2.1.3 2.6.8s.8 1.4.8 2.6v2.9c0 .7.2 1.2.6 1.4v.7c-.6 0-1-.1-1.3-.3-.2 0-.4-.2-.5-.6zm-.1-3.1c-.5-.1-.8-.2-1-.2-.7 0-1.3.2-1.8.6s-.7.8-.7 1.3c0 .9.5 1.3 1.5 1.3.7 0 1.4-.4 2-1.1v-1.9zm-3.5-7.6c.2 0 .4.1.6.3s.3.4.3.6-.1.4-.3.6-.4.3-.6.3c-.2 0-.4-.1-.6-.3s-.3-.4-.3-.6.1-.4.3-.6c.2-.2.4-.3.6-.3zm3.7 0c.2 0 .4.1.6.3s.3.4.3.6-.1.4-.3.6-.4.3-.6.3c-.2 0-.4-.1-.6-.3s-.2-.4-.2-.6.1-.4.2-.6c.1-.2.3-.3.6-.3zM248.1 35.3c.3 0 .5.1.6.3.2.2.3.4.3.6 0 .3-.1.5-.3.6-.2.2-.4.3-.6.3-.2 0-.5-.1-.6-.3-.2-.2-.3-.4-.3-.6 0-.3.1-.5.3-.6.1-.2.3-.3.6-.3zm-.8 11.3v-7h-1.1v-1.2h2.6v8.2h-1.5zM251.4 46.1l.5-1.4c.8.5 1.5.8 2 .8.9 0 1.4-.4 1.4-1.1 0-.5-.4-1-1.3-1.4-.7-.3-1.1-.5-1.4-.7-.2-.2-.4-.3-.6-.5s-.3-.4-.4-.6c-.1-.2-.1-.5-.1-.7 0-.7.2-1.2.7-1.6s1.1-.6 1.9-.6c.6 0 1.4.2 2.3.6l-.4 1.4c-.6-.5-1.2-.7-1.7-.7-.3 0-.6.1-.9.2-.2.2-.4.4-.4.6 0 .5.3.9.9 1.2l1 .5c.6.3 1.1.6 1.4 1 .3.4.4.8.4 1.4 0 .7-.3 1.3-.8 1.7s-1.2.6-2.2.6c-.7 0-1.5-.3-2.3-.7zM265.5 39l-.7 1c-.1-.1-.4-.3-.8-.4s-.7-.2-1.1-.2c-.8 0-1.4.3-1.9.8-.5.6-.7 1.3-.7 2.3s.2 1.7.7 2.2 1.1.8 2 .8c.7 0 1.3-.3 2-.8l.6 1.2c-.8.5-1.8.8-2.9.8-1.1 0-2-.4-2.8-1.1-.7-.8-1.1-1.8-1.1-3.1s.4-2.4 1.1-3.2c.8-.8 1.8-1.2 3.1-1.2.4 0 .9.1 1.4.3.5.3.9.5 1.1.6zM273.1 46.6v-5.2c0-.6-.2-1.1-.5-1.5-.3-.4-.7-.5-1.3-.5-.4 0-.7.1-1.1.3-.4.2-.6.4-.8.7v6.1H268V35h1.5v4.3c.2-.3.5-.6.9-.8s.9-.3 1.3-.3c.9 0 1.6.3 2 .9.5.6.7 1.4.7 2.4v5.2h-1.3v-.1zM284.5 42.6h-5.9c0 1 .3 1.7.8 2.2s1.1.7 1.8.7c.8 0 1.5-.2 2.1-.7l.6 1.1c-.2.2-.6.4-1 .6-.6.2-1.2.3-2 .3-1 0-1.9-.4-2.6-1.1-.8-.8-1.2-1.8-1.2-3.1 0-1.4.4-2.4 1.2-3.3.7-.7 1.6-1.1 2.6-1.1 1.2 0 2.1.3 2.8 1 .6.6 1 1.5 1 2.5-.1.4-.1.7-.2.9zm-3.5-3.1c-.7 0-1.2.2-1.6.6s-.7.9-.7 1.5h4.6c0-.6-.2-1.1-.6-1.5-.5-.4-1-.6-1.7-.6zM99.7 66.8h-.5L96.5 59 94 66.8h-.5L90 55.4h1.6l2.3 7.9 2.4-7.9h.6l2.4 7.8 2.3-7.8h1.6zM105.8 55.3c.3 0 .5.1.6.3.2.2.3.4.3.6 0 .3-.1.5-.3.6-.2.2-.4.3-.6.3s-.5-.1-.6-.3c-.2-.2-.3-.4-.3-.6 0-.3.1-.5.3-.6.2-.2.4-.3.6-.3zm-.8 11.4v-7h-1.1v-1.2h2.6v8.2H105zM113.3 59.8c-.3-.2-.6-.3-1-.3-.5 0-1 .2-1.4.7s-.6 1-.6 1.7v4.7h-1.5v-8.2h1.5v1.3c.5-1 1.3-1.5 2.4-1.5.3 0 .6 0 1.1.1l-.5 1.5zM115.5 59.6h-1v-1.2h1v-1.7l1.5-.6v2.3h2.3v1.2H117v4.1c0 .7.1 1.2.3 1.5s.6.4 1.1.4c.4 0 .8-.1 1.2-.3l.2 1.3c-.6.2-1.3.2-2 .2s-1.2-.2-1.7-.7c-.4-.5-.7-1.1-.7-1.8l.1-4.7zM120.6 66.2l.5-1.4c.8.5 1.5.8 2 .8.9 0 1.4-.4 1.4-1.1 0-.5-.4-1-1.3-1.4-.7-.3-1.1-.5-1.4-.7-.2-.2-.4-.3-.6-.5-.2-.2-.3-.4-.4-.6-.1-.2-.1-.5-.1-.7 0-.7.2-1.2.7-1.6s1.1-.6 1.9-.6c.6 0 1.4.2 2.3.6l-.4 1.4c-.6-.5-1.2-.7-1.7-.7-.3 0-.6.1-.9.2-.2.2-.4.4-.4.6 0 .5.3.9.9 1.2l1 .5c.6.3 1.1.6 1.4 1 .3.4.4.8.4 1.4 0 .7-.3 1.3-.8 1.7s-1.2.6-2.2.6c-.7-.1-1.5-.3-2.3-.7zM133.8 59.1l-.7 1c-.1-.1-.4-.3-.8-.4-.4-.1-.7-.2-1.1-.2-.8 0-1.4.3-1.9.8-.5.6-.7 1.3-.7 2.3s.2 1.7.7 2.2 1.1.8 2 .8c.7 0 1.3-.3 2-.8l.6 1.2c-.8.5-1.8.8-2.9.8s-2-.4-2.8-1.1c-.7-.8-1.1-1.8-1.1-3.1s.4-2.4 1.1-3.2c.8-.8 1.8-1.2 3.1-1.2.4 0 .9.1 1.4.3s.8.4 1.1.6zM140.4 66.7v-5.2c0-.6-.2-1.1-.5-1.5-.3-.4-.7-.5-1.3-.5-.4 0-.7.1-1.1.3s-.6.4-.8.7v6.1h-1.5V55h1.5v4.3c.2-.3.5-.6.9-.8.4-.2.9-.3 1.3-.3.9 0 1.6.3 2 .9.5.6.7 1.4.7 2.4v5.2h-1.2zM148.6 65.7c-.6.7-1.5 1.1-2.7 1.1-.6 0-1.2-.2-1.7-.7s-.7-1.1-.7-1.8c0-.8.4-1.5 1.1-2.1s1.7-.9 2.8-.9c.3 0 .7.1 1 .2 0-1.3-.6-2-1.8-2-.9 0-1.6.2-2.1.7l-.6-1.2c.3-.2.7-.4 1.1-.6.5-.2 1-.2 1.4-.2 1.2 0 2.1.3 2.6.8s.8 1.4.8 2.6v2.9c0 .7.2 1.2.6 1.4v.7c-.6 0-1-.1-1.3-.3-.2.1-.4-.2-.5-.6zm-.2-3.1c-.5-.1-.8-.2-1-.2-.7 0-1.3.2-1.8.6s-.7.8-.7 1.3c0 .9.5 1.3 1.5 1.3.7 0 1.4-.4 2-1.1v-1.9zM156.6 56.4c-.3-.1-.6-.2-.8-.2-.4 0-.8.2-1.1.5s-.4.8-.4 1.3v.4h1.7v1.2h-1.7v7h-1.5v-7h-1.2v-1.2h1.2c0-1 .3-1.9.8-2.5s1.2-.9 2.1-.9c.4 0 .9.1 1.4.2l-.5 1.2zM158.5 59.6h-1v-1.2h1v-1.7l1.5-.6v2.3h2.3v1.2H160v4.1c0 .7.1 1.2.3 1.5s.6.4 1.1.4c.4 0 .8-.1 1.2-.3l.2 1.3c-.6.2-1.3.2-2 .2s-1.2-.2-1.7-.7c-.4-.5-.7-1.1-.7-1.8l.1-4.7zM163.7 66.2l.5-1.4c.8.5 1.5.8 2 .8.9 0 1.4-.4 1.4-1.1 0-.5-.4-1-1.3-1.4-.7-.3-1.1-.5-1.4-.7-.2-.2-.4-.3-.6-.5-.2-.2-.3-.4-.4-.6s-.1-.5-.1-.7c0-.7.2-1.2.7-1.6s1.1-.6 1.9-.6c.6 0 1.4.2 2.3.6l-.4 1.4c-.6-.5-1.2-.7-1.7-.7-.3 0-.6.1-.9.2-.2.2-.4.4-.4.6 0 .5.3.9.9 1.2l1 .5c.6.3 1.1.6 1.4 1 .3.4.4.8.4 1.4 0 .7-.3 1.3-.8 1.7s-1.2.6-2.2.6c-.7-.1-1.5-.3-2.3-.7zM175.1 56.4c-.3-.1-.6-.2-.8-.2-.4 0-.8.2-1.1.5s-.4.8-.4 1.3v.4h1.7v1.2h-1.7v7h-1.5v-7h-1.2v-1.2h1.2c0-1 .3-1.9.8-2.5s1.2-.9 2.1-.9c.4 0 .9.1 1.4.2l-.5 1.2zM175.9 62.5c0-1.3.3-2.3 1-3.1.7-.8 1.6-1.2 2.7-1.2 1.2 0 2.1.4 2.7 1.1.7.7 1 1.8 1 3.1s-.3 2.4-1 3.1c-.7.8-1.6 1.1-2.7 1.1-1.2 0-2.1-.4-2.7-1.2-.7-.5-1-1.6-1-2.9zm1.5 0c0 2.1.7 3.1 2.2 3.1.7 0 1.2-.3 1.6-.8.4-.6.6-1.3.6-2.3 0-2-.7-3.1-2.2-3.1-.7 0-1.2.3-1.6.8-.4.6-.6 1.4-.6 2.3zM189.3 59.8c-.3-.2-.6-.3-1-.3-.5 0-1 .2-1.4.7-.4.5-.6 1-.6 1.7v4.7H185v-8.2h1.5v1.3c.5-1 1.3-1.5 2.4-1.5.3 0 .6 0 1.1.1l-.7 1.5zM190.4 66.2l.5-1.4c.8.5 1.5.8 2 .8.9 0 1.4-.4 1.4-1.1 0-.5-.4-1-1.3-1.4-.7-.3-1.1-.5-1.4-.7-.2-.2-.4-.3-.6-.5s-.3-.4-.4-.6c-.1-.2-.1-.5-.1-.7 0-.7.2-1.2.7-1.6s1.1-.6 1.9-.6c.6 0 1.4.2 2.3.6l-.4 1.4c-.6-.5-1.2-.7-1.7-.7-.3 0-.6.1-.9.2-.2.2-.4.4-.4.6 0 .5.3.9.9 1.2l1 .5c.6.3 1.1.6 1.4 1s.4.8.4 1.4c0 .7-.3 1.3-.8 1.7s-1.2.6-2.2.6c-.7-.1-1.5-.3-2.3-.7zM203.6 59.1l-.7 1c-.1-.1-.4-.3-.8-.4-.4-.1-.7-.2-1.1-.2-.8 0-1.4.3-1.9.8-.5.6-.7 1.3-.7 2.3s.2 1.7.7 2.2 1.1.8 2 .8c.7 0 1.3-.3 2-.8l.6 1.2c-.8.5-1.8.8-2.9.8-1.1 0-2-.4-2.8-1.1-.7-.8-1.1-1.8-1.1-3.1s.4-2.4 1.1-3.2c.8-.8 1.8-1.2 3.1-1.2.4 0 .9.1 1.4.3s.8.4 1.1.6zM210.2 66.7v-5.2c0-.6-.2-1.1-.5-1.5s-.7-.5-1.3-.5c-.4 0-.7.1-1.1.3-.4.2-.6.4-.8.7v6.1H205V55h1.5v4.3c.2-.3.5-.6.9-.8.4-.2.9-.3 1.3-.3.9 0 1.6.3 2 .9.5.6.7 1.4.7 2.4v5.2h-1.2zM215.1 58.4v5.2c0 1.3.6 1.9 1.7 1.9.5 0 .9-.1 1.3-.4.4-.3.7-.6.8-1v-5.8h1.5v8.2h-1.5v-1.1c-.2.3-.5.6-1 .9s-1 .4-1.4.4c-.9 0-1.6-.3-2.1-.8s-.7-1.3-.7-2.2v-5.4l1.4.1zM227.4 66.7v-4.8c0-.9-.1-1.5-.4-1.8-.3-.4-.7-.5-1.3-.5-.3 0-.7.1-1 .3-.4.2-.6.4-.8.7v6.1h-1.5v-8.2h1l.5 1.1c.5-.8 1.3-1.2 2.4-1.2 1.8 0 2.7 1.1 2.7 3.3v5.1l-1.6-.1zM230.6 68.9l.8-1.2c.8.6 1.6.9 2.4.9.7 0 1.2-.1 1.6-.3.4-.2.6-.5.6-.8 0-.7-.5-1-1.4-1-.2 0-.5 0-.9.1s-.8.1-1 .1c-1.2 0-1.8-.4-1.8-1.3 0-.3.1-.5.4-.7s.6-.4 1-.5c-1.2-.5-1.7-1.5-1.7-2.8 0-.9.3-1.6.9-2.2.6-.6 1.3-.9 2.2-.9.8 0 1.4.2 1.9.5l.7-.9 1 .9-.9.7c.4.5.6 1.1.6 1.9s-.3 1.5-.8 2.1-1.2.9-2 1l-1.2.1c-.1 0-.3.1-.6.2-.2.1-.4.2-.4.4s.3.3.8.3c.2 0 .6 0 1-.1.5-.1.8-.1 1-.1.8 0 1.4.2 1.9.6.5.4.7.9.7 1.6 0 .8-.3 1.4-1 1.8-.7.5-1.5.7-2.6.7-.5 0-1.1-.1-1.7-.3-.6-.3-1.1-.5-1.5-.8zm3.1-9.5c-.5 0-.9.2-1.2.5-.3.4-.5.8-.5 1.3 0 .6.2 1.1.5 1.4.3.4.7.6 1.3.6.5 0 .9-.2 1.2-.5.3-.4.4-.8.4-1.4 0-.5-.2-.9-.5-1.3s-.7-.6-1.2-.6zM251.5 56.2l-.6 1.3c-.8-.6-1.5-.9-2.3-.9-1.2 0-2.1.4-2.8 1.2s-1 1.9-1 3.3c0 1.3.3 2.3 1 3.1s1.6 1.2 2.7 1.2c.8 0 1.5-.2 2-.7v-2.6h-1.6v-1.3h3.1v4.9c-.4.3-1 .6-1.7.8s-1.4.3-2.1.3c-1.6 0-2.8-.5-3.7-1.6s-1.3-2.5-1.3-4.2.5-3.2 1.5-4.2c1-1.1 2.3-1.6 4-1.6 1.1 0 2 .3 2.8 1zM263.7 66.7v-5.2c0-1.3-.6-1.9-1.7-1.9-.4 0-.7.1-1 .3s-.5.5-.6.7v6.1H259v-5.8c0-.4-.2-.7-.5-1-.3-.2-.7-.4-1.2-.4-.3 0-.6.1-.9.3-.3.2-.6.5-.7.7v6.1h-1.5v-8.2h1l.5 1c.6-.7 1.3-1.1 2.1-1.1 1.2 0 2 .4 2.5 1.1.2-.3.5-.6.9-.8.4-.2.9-.3 1.4-.3.9 0 1.5.3 2 .8s.7 1.2.7 2.1v5.5h-1.6zM268.5 66.1l-.5.7h-.7V55h1.5v4c.1-.2.4-.4.8-.5.4-.2.8-.2 1.1-.2 1.1 0 2 .4 2.7 1.2.7.8 1.1 1.8 1.1 2.9 0 1.4-.4 2.5-1.1 3.2-.7.8-1.7 1.2-2.8 1.2-.4 0-.8-.1-1.2-.2-.4-.2-.7-.3-.9-.5zm.2-6v4.7c0 .1.2.2.5.4.4.2.6.3.8.3 1 0 1.7-.2 2.1-.7s.6-1.3.6-2.4c0-.9-.3-1.7-.8-2.2s-1.2-.8-2-.8c-.2 0-.4.1-.8.2-.1.3-.3.4-.4.5zM282.6 66.7v-5.5h-4.9v5.5h-1.6V55.4h1.6v4.5h4.9v-4.5h1.5v11.3z"/></svg>